<svg xmlns="http://www.w3.org/2000/svg" viewBox="0 0 192 192" width="192" height="192">
  <rect width="192" height="192" rx="36" fill="#0f172a"/>
  <g transform="translate(96 96)">
    <path d="M -34 6 L -14 6 L -14 30 L -54 30 Z" fill="#ef4444"/>
    <path d="M -34 6 L -34 -30 L -54 -30 L -14 -30 L -14 6 Z" fill="none"/>
    <path d="M -54 -30 L -14 -30 L -34 6 Z" fill="#ef4444"/>
    <path d="M 14 -6 L 34 -6 L 34 -30 L 54 -30 L 14 -30 Z" fill="none"/>
    <path d="M 14 30 L 14 -6 L 54 -6 L 54 -30 L 14 -30 Z" fill="none"/>
    <path d="M 14 -30 L 54 -30 L 34 6 Z" fill="#22c55e"/>
    <rect x="14" y="6" width="40" height="24" fill="#22c55e"/>
  </g>
  <text x="22" y="44" font-size="32" font-family="system-ui, -apple-system, sans-serif" font-weight="800" fill="#ffffff">Q</text>
</svg>
